<svg width="108" height="50" viewBox="0 0 108 50" fill="none" xmlns="http://www.w3.org/2000/svg">
<path d="M23.9745 7.93468C23.9354 7.94445 23.7059 7.97863 23.4618 8.00792C23.0223 8.06652 22.6757 8.14464 22.2655 8.28624C21.953 8.39367 21.0009 8.85753 20.8202 8.99425C19.9511 9.6339 19.663 9.90245 19.1893 10.5177C18.6766 11.1866 17.9198 12.4952 17.9198 12.715C17.9198 12.7882 18.0223 12.8419 18.1591 12.8419C18.203 12.8419 18.5057 12.9298 18.828 13.0372C19.1454 13.1495 19.4823 13.2569 19.5702 13.2862C19.6532 13.3107 19.7265 13.3497 19.7265 13.3741C19.7265 13.3937 19.7557 13.4132 19.7899 13.4132C19.8192 13.4132 19.9901 13.4816 20.1659 13.5597C21.0546 13.9698 21.2401 14.0187 21.2401 13.8478C21.2401 13.7501 21.8065 13.0079 22.1141 12.7003C22.4559 12.3585 22.8515 12.09 23.203 11.9532C24.0233 11.6359 25.0682 11.7042 25.7958 12.1193C25.9227 12.1974 26.0448 12.256 26.0643 12.256C26.1425 12.256 26.8163 12.9591 26.997 13.2228C27.4608 13.9064 27.6659 14.4239 27.8807 15.4298C27.9638 15.8253 28.0712 17.0851 28.0712 17.6759C28.0712 18.2716 27.9686 19.3458 27.8612 19.8732C27.6952 20.6739 27.6708 20.7911 27.5829 21.1866C27.5341 21.4112 27.4755 21.6163 27.4462 21.6456C27.3925 21.6993 27.2557 21.4503 27.1044 21.0011C27.0458 20.8302 26.953 20.6007 26.8993 20.4884C26.7431 20.1808 26.2694 19.4288 26.1132 19.2482C26.0399 19.1603 25.9764 19.0675 25.9764 19.0382C25.9764 18.9064 23.9891 16.9923 23.8475 16.9923C23.8378 16.9923 23.7645 16.9386 23.6913 16.8702C23.6181 16.8019 23.5399 16.7482 23.5204 16.7482C23.496 16.7482 23.3544 16.6505 23.203 16.5382C22.8954 16.2989 22.1874 15.8448 21.9725 15.7423C21.9335 15.7228 21.8114 15.6495 21.704 15.5812C21.4794 15.4396 20.8886 15.1368 20.8397 15.1368C20.8202 15.1368 20.6688 15.0734 20.4979 14.9952C20.327 14.922 20.1024 14.8243 19.995 14.7804C19.8876 14.7413 19.7118 14.673 19.6044 14.6339C19.0575 14.4288 18.5692 14.2579 18.5155 14.2579C18.4813 14.2579 18.2225 14.1896 17.9296 14.1114C16.4208 13.6818 16.2938 13.6622 14.9022 13.6622L13.6473 13.6573L13.0175 13.8331C12.6757 13.9308 12.3681 14.0284 12.3339 14.0528C12.3046 14.0724 12.1923 14.1212 12.0848 14.1554C11.787 14.2579 11.3671 14.4581 11.2011 14.5851C11.1181 14.6485 11.035 14.6974 11.0155 14.6974C10.913 14.6974 10.3075 15.1905 10.0048 15.5226C9.31141 16.2696 8.78895 17.3097 8.4911 18.5304C8.41297 18.8673 8.3788 20.4054 8.44227 20.8009C8.55946 21.5235 8.59364 21.6749 8.75477 22.1241C9.07704 23.0226 9.51649 23.7892 10.1659 24.6046C10.6542 25.215 10.5956 25.2052 11.1083 24.7218C11.3524 24.4972 11.6015 24.2726 11.6698 24.2286C11.7382 24.1847 12.0751 23.921 12.4169 23.6427C12.7636 23.3595 13.1542 23.0616 13.286 22.9737L13.5302 22.8126L13.1981 22.4171C12.5878 21.6896 12.4559 21.4698 12.2509 20.8253C12.1288 20.4298 12.119 19.4923 12.2411 19.1261C12.4804 18.3839 12.9784 17.881 13.7304 17.6271C14.038 17.5245 14.121 17.5196 15.0829 17.5392C15.8104 17.5489 16.1278 17.5734 16.1718 17.6173C16.2011 17.6466 16.2938 17.6759 16.3671 17.6759C16.5087 17.6759 17.2313 17.8419 17.4071 17.92C17.4608 17.9396 17.6464 18.0079 17.8222 18.0665C17.9979 18.1251 18.1639 18.1935 18.1884 18.213C18.2177 18.2325 18.3056 18.2618 18.3837 18.2814C18.5741 18.3253 20.2147 19.1359 20.5321 19.3409C20.7567 19.4874 21.3036 19.8487 21.5526 20.0196C21.7333 20.1466 22.4364 20.6739 22.4608 20.7032C22.4755 20.7179 22.7147 20.9278 22.9979 21.1622C23.2811 21.4015 23.5204 21.6163 23.5302 21.6407C23.535 21.6651 23.5057 21.714 23.4569 21.7482C23.3886 21.8019 23.1151 21.8068 22.1972 21.7872C21.2401 21.7677 20.9423 21.7823 20.6005 21.8458C20.371 21.8898 20.0829 21.9239 19.9559 21.9239C19.8339 21.9239 19.6727 21.9484 19.5946 21.9776C19.5214 22.0069 19.3261 22.046 19.1649 22.0704C18.745 22.1339 18.2372 22.2413 17.8954 22.339C17.7343 22.3829 17.5389 22.4366 17.4559 22.461C17.2362 22.5148 16.7431 22.6857 16.3182 22.8566C15.5272 23.1691 13.7059 24.1847 13.2958 24.546C13.1932 24.6339 13.0907 24.7071 13.0663 24.7071C13.0419 24.7071 12.9393 24.7804 12.8417 24.8634C12.7391 24.9513 12.5536 25.0978 12.4315 25.1905C11.9872 25.5128 10.5809 26.9728 10.2489 27.4513C9.36024 28.7257 9.08192 29.2872 8.64247 30.6935C8.42274 31.3868 8.42274 33.2765 8.64247 33.9601C9.17469 35.6153 9.81922 36.4845 11.2548 37.4806C11.6991 37.7882 12.788 38.2228 13.4032 38.3351C14.0526 38.4571 14.536 38.4864 15.4296 38.462C16.4403 38.4376 16.577 38.4132 16.5282 38.2862C16.5136 38.2472 16.455 38.047 16.3964 37.8419C16.1473 36.9239 16.0204 36.3526 15.9667 35.9523C15.9423 35.7716 15.8983 35.42 15.8641 35.171L15.8056 34.7218L14.9462 34.7023C14.0331 34.6876 13.955 34.673 13.5106 34.4093C13.0516 34.1359 12.4511 33.4327 12.4511 33.1642C12.4511 33.1202 12.4169 33.0177 12.3778 32.9396C12.2753 32.7442 12.2753 31.753 12.3778 31.5089C12.4169 31.4161 12.4511 31.2989 12.4511 31.2501C12.4511 31.2013 12.4852 31.0987 12.5243 31.0255C12.5634 30.9474 12.5975 30.8497 12.5975 30.8107C12.5975 30.7667 12.622 30.7081 12.6513 30.6788C12.6806 30.6495 12.7294 30.5812 12.7636 30.5275C13.1786 29.7999 14.2333 28.6964 15.0682 28.1007C16.0643 27.3927 16.7577 27.0069 17.7343 26.6163C18.8329 26.1769 19.7313 25.9278 19.8485 26.0255C19.912 26.0792 19.8876 26.3185 19.8241 26.3185C19.8046 26.3185 19.702 26.4454 19.5995 26.5968C19.4921 26.753 19.2577 27.0997 19.0673 27.3732C18.8817 27.6417 18.6962 27.9151 18.6571 27.9835C18.2958 28.5939 18.1688 28.8478 17.9393 29.4093C17.7929 29.7609 17.6757 30.088 17.6757 30.1319C17.6757 30.1759 17.6415 30.2931 17.6024 30.3859C17.5634 30.4835 17.5292 30.6251 17.5292 30.7032C17.5292 30.7765 17.5097 30.8595 17.4804 30.8888C17.4364 30.9327 17.3973 31.1183 17.2606 32.0069C17.2216 32.2462 17.1679 32.5782 17.1434 32.7394C17.0751 33.1056 17.08 35.2931 17.1434 35.6202C17.1727 35.7521 17.2118 35.9962 17.2313 36.1573C17.285 36.5138 17.3632 36.8458 17.6317 37.7931C18.1151 39.5167 19.2528 41.3771 20.4198 42.3439C21.2987 43.0812 22.036 43.4425 23.0956 43.6671C23.5155 43.7599 24.6044 43.8624 24.7118 43.8282C24.7509 43.8136 25.0243 43.7794 25.3173 43.755C26.0302 43.6915 26.5917 43.5499 27.1141 43.3009C27.2655 43.2228 27.412 43.1642 27.4364 43.1642C27.4559 43.1642 27.705 43.0128 27.9833 42.8273C28.994 42.1583 29.8973 41.1525 30.4198 40.1124C30.5126 39.922 30.6005 39.7609 30.6151 39.7462C30.6737 39.6876 30.8104 39.4532 30.8104 39.4044C30.8104 39.3751 30.7518 39.3312 30.6786 39.3019C30.6005 39.2775 30.4784 39.2237 30.3954 39.1896C30.3173 39.1505 30.1268 39.0821 29.9804 39.0382C29.8339 38.9894 29.6679 38.921 29.6141 38.8819C29.5604 38.8478 29.4774 38.8185 29.4335 38.8185C29.3847 38.8185 29.3065 38.7989 29.2577 38.7745C29.2138 38.7501 29.077 38.6866 28.955 38.6329C28.8329 38.5792 28.496 38.4181 28.203 38.2765C27.622 37.9982 27.578 37.9982 27.4364 38.2716C27.3925 38.3546 27.2997 38.5011 27.2264 38.5939C27.1581 38.6866 27.0995 38.7745 27.0995 38.7892C27.0995 38.8282 26.9091 39.0577 26.7235 39.2384C26.5282 39.4337 25.9325 39.795 25.6249 39.9122C25.3417 40.0148 24.5311 40.1026 24.1942 40.0636C23.4423 39.9708 22.5927 39.4386 22.1386 38.7696C21.8456 38.34 21.7821 38.2374 21.6161 37.9249C21.5136 37.7442 21.4354 37.5636 21.4354 37.5294C21.4354 37.4903 21.4061 37.3536 21.3671 37.2267C21.328 37.0948 21.2743 36.8653 21.245 36.7189C21.2157 36.5724 21.1571 36.2941 21.1181 36.1085C21.0741 35.9181 21.0204 35.547 20.996 35.2784C20.9716 35.0099 20.9276 34.5997 20.9032 34.3702C20.8739 34.0919 20.8739 33.7355 20.9081 33.3448C20.9325 33.0128 20.9716 32.5099 20.996 32.2267C21.0595 31.3526 21.2255 30.5323 21.3622 30.42C21.4257 30.3663 21.455 30.4005 21.5575 30.6349C21.6259 30.7862 21.6796 30.9425 21.6796 30.9864C21.6796 31.2306 22.3827 32.4269 22.9393 33.1251C23.3446 33.6378 24.1942 34.4923 24.6044 34.8048C25.1073 35.1905 25.7323 35.6446 25.7616 35.6446C25.8007 35.6446 26.0985 35.8595 26.1132 35.8985C26.1229 35.923 26.1522 35.9376 26.1815 35.9376C26.2059 35.9376 26.2889 35.9767 26.3573 36.0304C26.4306 36.0792 26.6747 36.2159 26.9042 36.3331C27.1337 36.4454 27.3534 36.5675 27.3925 36.5968C27.495 36.6749 29.0429 37.3585 29.2235 37.4073C29.3065 37.4269 29.5897 37.5245 29.8583 37.6222C31.0692 38.0665 31.9286 38.2569 33.0565 38.34C33.9013 38.3985 34.9657 38.3497 35.4784 38.2276C37.5438 37.7442 39.0575 36.6066 39.8729 34.9317C40.0878 34.4874 40.161 34.2872 40.3319 33.6671C40.4149 33.379 40.4296 33.1593 40.4296 32.2218C40.4296 31.0939 40.4247 31.0597 40.2098 30.3663C40.1708 30.2394 40.1366 30.1124 40.1366 30.0782C40.1366 30.0099 39.7167 29.1407 39.5214 28.8136C39.4188 28.6329 39.1893 28.3107 39.0233 28.1007C39.0038 28.0714 38.9305 27.964 38.8671 27.8566C38.8036 27.7491 38.7352 27.6515 38.7206 27.6368C38.6571 27.5831 38.3348 27.1681 38.3251 27.1241C38.3007 27.0558 38.1688 26.9044 38.1298 26.9044C38.1151 26.9044 38.037 26.9972 37.9589 27.1095C37.8807 27.2218 37.7294 27.3927 37.6268 27.4903C37.5194 27.5831 37.3534 27.7394 37.2606 27.8321C37.163 27.9298 36.9335 28.13 36.7431 28.2765C36.5575 28.4278 36.372 28.5841 36.3329 28.628C36.2987 28.6769 36.2401 28.711 36.2059 28.711C36.1766 28.711 36.0204 28.8234 35.8641 28.9601C35.7079 29.0919 35.5321 29.2384 35.4686 29.2823C35.4052 29.3214 35.3514 29.3751 35.3514 29.3946C35.3514 29.4191 35.4589 29.5411 35.5907 29.6632C35.7274 29.7901 35.869 29.9659 35.913 30.0587C35.952 30.1466 36.0399 30.2833 36.0985 30.3566C36.2401 30.5323 36.4403 30.9132 36.5673 31.2501C36.6503 31.4698 36.6698 31.631 36.6698 32.1388C36.6698 32.4806 36.6503 32.7687 36.6259 32.7882C36.6014 32.8028 36.5624 32.8859 36.5477 32.9737C36.4403 33.4571 35.8837 34.0821 35.3563 34.3067C34.702 34.5851 33.4813 34.59 32.3485 34.3263C31.5526 34.1407 31.0936 34.0138 30.8104 33.9112C30.3466 33.7403 30.1268 33.6573 29.7216 33.4767C29.619 33.4327 29.5116 33.3985 29.4823 33.3985C29.4042 33.3985 29.0184 33.1739 27.9491 32.5001C27.202 32.0314 26.4403 31.465 25.7811 30.8888C25.3222 30.4884 25.1952 30.3663 25.1952 30.3224C25.1952 30.2442 25.4735 30.2247 26.8798 30.2198C27.6854 30.2198 28.5302 30.2003 28.7597 30.1759C29.7264 30.0734 30.1757 30.0001 30.7616 29.8341C30.8544 29.8048 31.1181 29.7316 31.3475 29.6681C31.577 29.6046 31.9042 29.5021 32.08 29.4435C32.6952 29.2384 34.2186 28.5255 34.4237 28.3448C34.4628 28.3107 34.5751 28.2472 34.6679 28.1984C34.9071 28.0763 35.2977 27.8175 35.8251 27.4317C36.3378 27.0558 37.8417 25.6105 38.2665 25.0831C38.4227 24.8878 38.5839 24.6925 38.6327 24.6437C38.9354 24.3067 39.6825 23.0128 39.868 22.5099C39.912 22.3878 39.9901 22.1925 40.0389 22.0704C40.0878 21.9484 40.1659 21.7091 40.2098 21.5333C40.2538 21.3575 40.3124 21.1378 40.3368 21.045C40.4345 20.6788 40.4979 19.4386 40.4393 18.8771C40.41 18.5743 40.3661 18.2765 40.3417 18.2081C40.3173 18.1446 40.2587 17.9591 40.2098 17.798C40.1659 17.6368 40.0829 17.4269 40.0341 17.3292C39.9804 17.2316 39.9413 17.1144 39.9413 17.0753C39.9413 17.0362 39.9266 16.9923 39.9071 16.9825C39.8827 16.9728 39.8241 16.88 39.7753 16.7726C39.3944 15.9816 38.496 15.0294 37.6513 14.5216C37.2411 14.2677 36.7772 14.0284 36.5966 13.9698C36.5184 13.9405 36.3182 13.8722 36.1571 13.8136C35.5175 13.5841 34.6825 13.4816 33.4179 13.4816C32.5145 13.4767 32.4852 13.4864 32.5634 13.7989C32.5927 13.9064 32.6366 14.0968 32.6659 14.2335C32.6952 14.3653 32.7391 14.5411 32.7636 14.6241C32.788 14.7023 32.8319 14.9171 32.8563 15.0978C32.8807 15.2784 32.9149 15.4493 32.9296 15.4737C32.9442 15.4982 32.9833 15.7911 33.0126 16.1232C33.0468 16.4503 33.0809 16.8458 33.1005 16.9923L33.1298 17.256L33.7401 17.2609C34.5165 17.2706 34.9559 17.3732 35.4345 17.6612C36.0546 18.0372 36.3817 18.5206 36.577 19.3409C36.6845 19.7901 36.6845 19.7999 36.6014 20.2394C36.3915 21.3185 35.8348 22.2364 34.7557 23.2667C34.0184 23.9698 33.6229 24.2775 32.91 24.7023C32.6268 24.8683 32.3632 25.0245 32.3241 25.0489C32.2216 25.1124 31.5087 25.4591 31.2743 25.5567C31.1669 25.6007 31.0399 25.6593 30.996 25.6837C30.9472 25.713 30.8788 25.7325 30.8397 25.7325C30.8007 25.7325 30.7079 25.7569 30.6298 25.7911C30.4491 25.8644 29.5995 26.0694 29.1161 26.1573C28.8427 26.2013 28.8573 25.9864 29.1405 25.6886C29.3114 25.5128 29.5311 25.215 29.6581 24.9757C29.7313 24.839 29.8339 24.6876 29.8778 24.6339C29.9266 24.5802 29.9804 24.5021 29.9999 24.463C30.0194 24.4239 30.0585 24.3458 30.0927 24.2921C30.2929 23.9601 30.5419 23.5011 30.5516 23.4278C30.5565 23.3839 30.6054 23.2765 30.6591 23.1837C30.7079 23.0958 30.8446 22.7784 30.9569 22.4855C31.0692 22.1876 31.1913 21.88 31.2255 21.8019C31.2597 21.7189 31.3036 21.6017 31.3182 21.5333C31.372 21.2745 31.4598 20.9669 31.5233 20.8107C31.5624 20.7228 31.5917 20.5909 31.5917 20.5226C31.5917 20.4542 31.621 20.2833 31.66 20.1466C31.8847 19.3458 31.9677 17.0851 31.8065 16.0499C31.6454 14.9659 31.3768 13.8185 31.1376 13.1495C31.0009 12.7784 30.5761 11.8312 30.4931 11.7189C30.4638 11.6798 30.3905 11.548 30.3222 11.4259C30.0243 10.8595 29.0575 9.76574 28.4374 9.28722C27.7684 8.76964 26.9921 8.3839 26.1229 8.13976C25.5761 7.98351 24.3309 7.86632 23.9745 7.93468ZM24.9755 22.3829C25.9227 22.5489 26.6796 22.9933 27.2557 23.7306C27.661 24.2482 27.9198 24.8097 28.0272 25.3907C28.0565 25.5665 28.0907 25.7521 28.1005 25.8058C28.1298 25.9523 27.9833 26.9484 27.8905 27.1974C27.5536 28.1349 26.8895 28.838 25.8788 29.3312C25.2977 29.6095 25.3075 29.6095 24.5116 29.6046C23.8622 29.6046 23.7059 29.59 23.4423 29.4972C22.8661 29.297 22.3388 28.9845 21.9335 28.5939C21.704 28.379 21.289 27.7833 21.289 27.6759C21.289 27.6368 21.2597 27.5685 21.2206 27.5148C21.1522 27.4073 21.0448 27.0655 20.9179 26.5431C20.6688 25.4933 21.1913 23.9845 22.0604 23.2569C22.6757 22.7345 23.3153 22.4366 23.955 22.3683C24.5116 22.3097 24.5458 22.3097 24.9755 22.3829Z" fill="#334155"/>
<path d="M24.2285 23.7843C23.8672 23.8233 23.6328 23.8966 23.2471 24.087C23.042 24.1896 22.583 24.7413 22.417 25.0831C22.2559 25.4054 22.251 25.4347 22.251 26.0011C22.2559 26.5284 22.2656 26.6163 22.3828 26.8751C22.5879 27.3243 22.7686 27.544 23.1689 27.8272C23.6035 28.1349 24.4092 28.2911 24.9756 28.1739C25.5908 28.0519 26.2451 27.5489 26.5625 26.9532C26.7285 26.6456 26.7334 26.6212 26.7334 26.0743C26.7334 25.4103 26.6846 25.2638 26.2793 24.7169C26.0303 24.38 25.5322 23.9747 25.3711 23.9747C25.3418 23.9747 25.293 23.9552 25.2686 23.9356C25.2246 23.8966 24.9023 23.7989 24.707 23.7599C24.668 23.7501 24.4531 23.7647 24.2285 23.7843Z" fill="#334155"/>
<path d="M62.4239 21.8088C62.4239 23.8404 61.9095 25.4012 60.8806 26.4911C59.8605 27.5723 58.3825 28.1129 56.4468 28.1129H55.5575V35.0447H52V15.9233H56.8523C60.5667 15.9233 62.4239 17.8851 62.4239 21.8088ZM55.5575 25.0262H56.2376C57.1095 25.0262 57.7591 24.7864 58.1863 24.3069C58.6136 23.8273 58.8272 23.0426 58.8272 21.9527C58.8272 20.95 58.631 20.2088 58.2387 19.7292C57.8463 19.241 57.2403 18.9968 56.4207 18.9968H55.5575V25.0262Z" fill="#334155"/>
<path d="M75.4244 27.7336C75.4244 30.1227 74.9187 31.9842 73.9073 33.3183C72.8958 34.6436 71.5095 35.3063 69.7482 35.3063C68.6321 35.3063 67.6468 35.0011 66.7923 34.3908C65.9378 33.7804 65.2795 32.9041 64.8174 31.7619C64.3553 30.6109 64.1242 29.2682 64.1242 27.7336C64.1242 25.3706 64.6256 23.5265 65.6283 22.2012C66.631 20.8671 68.0217 20.2001 69.8005 20.2001C71.5182 20.2001 72.8827 20.8802 73.8942 22.2404C74.9143 23.5919 75.4244 25.423 75.4244 27.7336ZM67.6817 27.7336C67.6817 29.2507 67.8473 30.3973 68.1787 31.1733C68.51 31.9494 69.0419 32.3374 69.7743 32.3374C71.1694 32.3374 71.8669 30.8028 71.8669 27.7336C71.8669 26.2077 71.6969 25.0698 71.3569 24.32C71.0255 23.5614 70.498 23.1821 69.7743 23.1821C69.0419 23.1821 68.51 23.5614 68.1787 24.32C67.8473 25.0698 67.6817 26.2077 67.6817 27.7336Z" fill="#334155"/>
<path d="M81.3492 35.0447H77.8702V14.6938H81.3492V35.0447Z" fill="#334155"/>
<path d="M86.6069 35.0447L82.801 20.4747H86.4107L88.268 28.9107C88.3464 29.303 88.438 29.8785 88.5426 30.6371C88.656 31.387 88.7257 31.9276 88.7519 32.2589H88.8042C88.8129 31.9973 88.8478 31.6224 88.9088 31.1341C88.9786 30.6458 89.0483 30.1968 89.1181 29.787C89.1878 29.3772 89.8592 26.2731 91.1323 20.4747H94.742L90.923 35.0447H86.6069Z" fill="#334155"/>
<path d="M107.023 27.7336C107.023 30.1227 106.517 31.9842 105.506 33.3183C104.495 34.6436 103.108 35.3063 101.347 35.3063C100.231 35.3063 99.2456 35.0011 98.3911 34.3908C97.5366 33.7804 96.8783 32.9041 96.4162 31.7619C95.954 30.6109 95.723 29.2682 95.723 27.7336C95.723 25.3706 96.2243 23.5265 97.2271 22.2012C98.2298 20.8671 99.6205 20.2001 101.399 20.2001C103.117 20.2001 104.482 20.8802 105.493 22.2404C106.513 23.5919 107.023 25.423 107.023 27.7336ZM99.2804 27.7336C99.2804 29.2507 99.4461 30.3973 99.7774 31.1733C100.109 31.9494 100.641 32.3374 101.373 32.3374C102.768 32.3374 103.466 30.8028 103.466 27.7336C103.466 26.2077 103.296 25.0698 102.956 24.32C102.624 23.5614 102.097 23.1821 101.373 23.1821C100.641 23.1821 100.109 23.5614 99.7774 24.32C99.4461 25.0698 99.2804 26.2077 99.2804 27.7336Z" fill="#334155"/>
</svg>
